<svg width="25" height="51" viewBox="0 0 25 51" fill="none" xmlns="http://www.w3.org/2000/svg">
<path d="M25 50.5C18.3696 50.5 12.0107 47.8661 7.32233 43.1777C2.63392 38.4893 -2.44337e-06 32.1304 -1.93118e-06 25.5C-1.419e-06 18.8696 2.63392 12.5107 7.32233 7.82233C12.0107 3.13392 18.3696 0.5 25 0.5L25 25.5L25 50.5Z" fill="#E6E6E6"/>
<path d="M19.2929 26.2071L14.7071 30.7929C14.0771 31.4229 13 30.9767 13 30.0858L13 20.9142C13 20.0233 14.0771 19.5771 14.7071 20.2071L19.2929 24.7929C19.6834 25.1834 19.6834 25.8166 19.2929 26.2071Z" fill="#083893"/>
</svg>
