<svg width="25" height="51" viewBox="0 0 25 51" fill="none" xmlns="http://www.w3.org/2000/svg">
<path d="M5.96244e-07 0.5C6.63041 0.5 12.9893 3.13392 17.6777 7.82233C22.3661 12.5107 25 18.8696 25 25.5C25 32.1304 22.3661 38.4893 17.6777 43.1777C12.9893 47.8661 6.63042 50.5 3.8147e-06 50.5L2.98122e-07 25.5L5.96244e-07 0.5Z" fill="#E6E6E6"/>
<path d="M5.70711 24.7929L10.2929 20.2071C10.9229 19.5771 12 20.0233 12 20.9142L12 30.0858C12 30.9767 10.9229 31.4229 10.2929 30.7929L5.70711 26.2071C5.31658 25.8166 5.31658 25.1834 5.70711 24.7929Z" fill="#083893"/>
</svg>
